<svg viewBox="0 0 512 512" xmlns="http://www.w3.org/2000/svg"><path d="m31 421h60v-90h30v90h30v-90h30v90h30v-90h30v90h30v-90h30v90h30v-90h30v90h30v-90h30v90h61v-90h30v-30h-512v30h31zm0 0"/><path d="m421 165c0-85.917969-66.03125-157.386719-150-165v15c0 51.3125 23.261719 98.832031 63.839844 130.355469 25.125 19.527343 54.929687 30.972656 86.160156 33.808593zm0 0"/><path d="m241 15v-15c-83.96875 7.613281-150 79.082031-150 165v13.992188c25.574219-2.273438 50.289062-10.117188 72.628906-24.15625 48.441406-30.425782 77.371094-82.707032 77.371094-139.835938zm0 0"/><path d="m421 271v-61.601562c-20.699219-1.5-40.800781-6.597657-60-14.699219v76.300781zm0 0"/><path d="m91 271h60v-76c-19.199219 8.097656-39.601562 12.597656-60 14.097656zm0 0"/><path d="m31 451h451v61h-451zm0 0"/></svg>